# xmcd
#
# Track frame offsets:
# 150
# 16120
# 34831
# 52502
# 66220
# 79394
# 97645
# 111597
# 125966
#
# Disc length: 1886 seconds
#
#
# Revision: 0
# Processed by: cddbd v1.5.2PL0 Copyright (c) Steve Scherf et al.
# Submitted via: FreeRIP 2.945 
#
DISCID=6e075c09
DTITLE=Julian Kanevsky - Julian Kanevsky
DYEAR=2008
DGENRE=Fusion
TTITLE0=Sabrosón
TTITLE1=Brush
TTITLE2=Bye! bye! Pax
TTITLE3=L'Andao
TTITLE4=Slide Medley
TTITLE5=Cowboy Bossa
TTITLE6=Resacca
TTITLE7=Vinchuka
TTITLE8=Rebeshuffle
EXTD=
EXTT0=
EXTT1=
EXTT2=
EXTT3=
EXTT4=
EXTT5=
EXTT6=
EXTT7=
EXTT8=
PLAYORDER=
